<svg xmlns="http://www.w3.org/2000/svg" xmlns:xlink="http://www.w3.org/1999/xlink" viewBox="0 0 357.23 272.17"><defs><style>.cls-1,.cls-3{fill:none;}.cls-2{clip-path:url(#clip-path);}.cls-3{stroke:#231f20;}.cls-3,.cls-5{stroke-miterlimit:10;}.cls-4{fill:#231f20;}.cls-5{fill:#fff;stroke:#fff;stroke-width:5px;}</style><clipPath id="clip-path" transform="translate(39.48 54.79)"><rect class="cls-1" x="-8.99" y="-8.81" width="287.65" height="179.95"/></clipPath></defs><title>Back</title><g id="_13_copy" data-name="13 copy"><g class="cls-2"><image width="3283" height="2400" transform="matrix(0.1, 0.02, -0.01, 0.09, 34.2, 0)" xlink:href="../../Background.png"/><path class="cls-3" d="M-5.77,34.76c3.72,1,15.5,4.29,18.89,2.54,4.56-2.36,7-7.34,12.21-16,9.64,7,19.36,10.08,26.26.55,2.85,5.61,10.68,6.65,16.09,3.87C75.77,21.62,85.3,10,88.32,1.22c7.1,7.5,14.67,14,23.89,10.09s7.58-6.51,12.23-15.63c6,7.1,10.87,12.91,19.08,9.16,8.4-3.84,11.69-8.19,16.63-16.15,12.89,8.6,24.74,2.13,30.43-12.24C188.52-17,197.87-7,204.45-8.48c8.43-1.9,31.37-12.13,36.66-16.36-3,2.21-12.82,13.28-8.18,25.58,2.19,5.82,14.54,2,21.18,0a25.37,25.37,0,0,0-11.78,18.75c-.86,8,11.91,8.84,19.34,6.54-5.66,6-12.76,23.67-9.56,31.52a22.36,22.36,0,0,0,19.33,13.76c-3.65,4.4-13.34,8.07-10.64,13.26s13,17.45,18.67,16.89c-11.92-.79-28.5,1.3-28.94,24.05-5.63-6.82-14-16.67-20.63-13.29s-8.72,16.29-11.85,23.23c-4.71-5.53-13.38-11.26-20-8.86-9,3.24-11.05,16.2-15.23,24.94-5.62-6.05-17.44-15.27-24.08-14-14.33,2.69-9.5,10.72-20,21.51-4.11-3.21-10.12-6.3-15.35-5.08-11.56,2.72-10.48,8.6-17.2,18.57-4-2.88-21.27-4.73-26.81-3.15a37,37,0,0,0-20.14,14.49c-.39-5.24-6-8.88-11.05-8.88s-8.07,1.65-12.42,4.29c1.68-5.86,1.71-10.89,1.09-17S32.73,149.82,27,147.88a16.24,16.24,0,0,0,2.74-16.27,16.14,16.14,0,0,0-13-10.08,18.27,18.27,0,0,0,2.31-18.27A18,18,0,0,0,4.18,92.57C7.73,90.25,11.4,83.79,8,81.13A24.05,24.05,0,0,0-7.11,76.25c1.61-.11,4.45-4.85,6.25-8.45,1.21-2.42-4.53-8.66-6.83-9.88,2.86-1.38,5-5.49,6.88-8.67C.67,46.75-4.65,37.52-5.77,34.76Z" transform="translate(39.48 54.79)"/><path class="cls-4" d="M-5.77,34.76c3.72,1,15.5,4.29,18.89,2.54,4.56-2.36,7-7.34,12.21-16,9.64,7,19.36,10.08,26.26.55,2.85,5.61,10.68,6.65,16.09,3.87C75.77,21.62,85.3,10,88.32,1.22c7.1,7.5,14.67,14,23.89,10.09s7.58-6.51,12.23-15.63c6,7.1,10.87,12.91,19.08,9.16,8.4-3.84,11.69-8.19,16.63-16.15,12.89,8.6,24.74,2.13,30.43-12.24C188.52-17,197.87-7,204.45-8.48c8.43-1.9,31.37-12.13,36.66-16.36-3,2.21-12.82,13.28-8.18,25.58,2.19,5.82,14.54,2,21.18,0a25.37,25.37,0,0,0-11.78,18.75c-.86,8,11.91,8.84,19.34,6.54-5.66,6-12.76,23.67-9.56,31.52a22.36,22.36,0,0,0,19.33,13.76c-3.65,4.4-13.34,8.07-10.64,13.26s13,17.45,18.67,16.89c-11.92-.79-28.5,1.3-28.94,24.05-5.63-6.82-14-16.67-20.63-13.29s-8.72,16.29-11.85,23.23c-4.71-5.53-13.38-11.26-20-8.86-9,3.24-11.05,16.2-15.23,24.94-5.62-6.05-17.44-15.27-24.08-14-14.33,2.69-9.5,10.72-20,21.51-4.11-3.21-10.12-6.3-15.35-5.08-11.56,2.72-10.48,8.6-17.2,18.57-4-2.88-21.27-4.73-26.81-3.15a37,37,0,0,0-20.14,14.49c-.39-5.24-6-8.88-11.05-8.88s-8.07,1.65-12.42,4.29c1.68-5.86,1.71-10.89,1.09-17S32.73,149.82,27,147.88a16.24,16.24,0,0,0,2.74-16.27,16.14,16.14,0,0,0-13-10.08,18.27,18.27,0,0,0,2.31-18.27A18,18,0,0,0,4.18,92.57C7.73,90.25,11.4,83.79,8,81.13A24.05,24.05,0,0,0-7.11,76.25c1.61-.11,4.45-4.85,6.25-8.45,1.21-2.42-4.53-8.66-6.83-9.88,2.86-1.38,5-5.49,6.88-8.67C.67,46.75-4.65,37.52-5.77,34.76Z" transform="translate(39.48 54.79)"/><path class="cls-4" d="M-13.77,35.72c3.71.92,21,4.33,24.43,2.59C15.26,36,18,30.41,23.32,22c9.55,6.59,18.82,8.59,25.88-.69,2.77,5.36,8,7.79,13.51,5,8.16-4.12,16.62-15.13,19.78-23.62,7,7.11,14.46,14,23.76,10.11s7.1-8.62,11.89-17.47c5.92,6.75,15.61,16.16,23.9,12.42C150.52,4,153.22-.66,158.29-8.39c12.78,8.08,29.05.67,35-13.26-2.16,6.37,3.67,18.25,10,15.73,8.08-3.22,29.61-13.33,35-17.48-3.08,2.16-5.54,11.45-7.33,23.09-.82,5.27,14.49,5.83,20.6,2.82-8.62,3-13.58,14.14-13.92,22.19-.33,7.73,14.37,8.44,21.84,6.11-5.76,5.85-14.75,21.67-14.56,29,.21,8.12,9.88,9.4,18.1,9.54C259.23,73.6,253.66,78,256.29,83s9.52,13,13.81,17.46c-16.35-.2-17.47,9.57-19.54,21.06-.32,1.78-7.83-5.49-11.07-9.75s-13.46-1.67-15.05,3c-2.19,6.49-2.57,10.16-4.54,17.56-4.64-5.26-16.29-9.93-23-7.52-9,3.25-9.28,12.78-13.61,21.27-5.53-5.75-19.67-15.74-25.32-12-10.45,7-12.63,13-19.49,23.57-4.07-3-12.74-5.32-18-4.06-11.63,2.79-10.78,8.61-17.66,18.32-4-2.71-21.76-4.51-27.33-2.91C67.39,171.42,59,180.77,54,187.58c-.31-5-3.08-12.43-8.19-12.34s-18.54,1.57-22.94,4.17c1.78-5.66,6.05-15.32,5.52-21.21s-8.27-11.42-14-13.2c3.83-4.17,10.93-8.73,8.88-13.94s-8.84-5.47-14.48-5.93c4.05-4.83,8-16.67,3-20.44C4.15,98.85-1.93,95.77-7.8,95.48-4.2,93.19,5.43,88.14,2,85.63c-4.54-3.36-10.71-5.48-15-5.12,1.61-.14,3.79-6.36,5.65-9.86C-6,68.3-15.35,62.2-17.63,61.07c2.88-1.37,8.89-4.83,10.82-7.92C-5.3,50.73-12.7,38.36-13.77,35.72Z" transform="translate(39.48 54.79)"/><path class="cls-5" d="M-6.08,40c3.49.89,14.57,3.75,17.79,2.11,4.33-2.2,6.71-6.8,11.71-14.74,9,6.29,18.15,9,24.77.21,2.63,5.1,10,6,15.15,3.37C71,27.08,80.15,16.33,83.09,8.27c6.62,6.78,13.69,12.67,22.43,9s7.24-6,11.72-14.44c5.6,6.43,18.52,12.31,26.31,8.79A46.21,46.21,0,0,0,163.18-5.29c12.07,7.73,24.21,2.44,29.74-10.78C190.9-10,196.11,0,202.34-1.42c8-1.84,25.77-11.38,30.81-15.31-2.89,2.05-8.91,6.17-9.2,19.26-.14,6.39,8.77,7.24,16.22,5.8-5.17,5.4-4.39,7-5.67,15.16-1.13,7.26,9.08,13.84,16.12,11.65-5.41,5.54-12.2,16-9.27,23.11s6.05,12,13.8,12.14a13.74,13.74,0,0,0-1.7,15c2.49,4.72,8.05,7.11,12.32,10.62-11.24-.58-15.55,5.88-16.53,17.07-5.24-7.33-15.53-10.93-21.87-7.76s-5.44,11.76-8.47,18.15c-4.39-5-16.7-6.7-23-4.43-8.49,3.06-8,12.19-12,20.24-5.23-5.48-17.29-10.47-23.57-9.26-13.56,2.63-10.78,10.65-20.81,20.64-3.85-2.89-20-4.18-25-3-11,2.61-10,8-16.44,17.19-3.76-2.6-20-4.1-25.27-2.6a36.12,36.12,0,0,0-19.18,13.49c-.3-4.79-5.51-8.06-10.32-8s-7.63,1.6-11.78,4.06c1.66-5.38,1.74-10,1.23-15.59s-3.76-11.32-9.13-13a14.68,14.68,0,0,0,2.77-14.93,14.68,14.68,0,0,0-12.17-9.07,16.46,16.46,0,0,0,2.39-16.76A16.51,16.51,0,0,0,2.66,92.81C6,90.65,9.58,84.69,6.37,82.3A22.67,22.67,0,0,0-7.81,78c1.52-.12,4.25-4.49,6-7.81C-.65,68-6,62.32-8.15,61.23c2.7-1.3,4.78-5.09,6.59-8C-.15,50.91-5.06,42.52-6.08,40Z" transform="translate(39.48 54.79)"/></g></g></svg>